<svg id="图层_2" data-name="图层 2" xmlns="http://www.w3.org/2000/svg" viewBox="0 0 473.26 765.79" width="32" height="32">
  <path id="联合_2" data-name="联合 2" d="M683.54,894.89a11.48,11.48,0,0,1-11.49-11.48h0V829.8a11.49,11.49,0,0,1,11.49-11.49h53.6a11.5,11.5,0,0,1,11.49,11.49h0v53.61a11.49,11.49,0,0,1-11.49,11.48h-53.6ZM679.7,837l-.2,45.8a4.59,4.59,0,0,0,4.58,4.61h0l45.79-.19a4.6,4.6,0,0,0,3.23-7.85l-45.6-45.6A4.59,4.59,0,0,0,679.7,837ZM286.86,894.89a11.49,11.49,0,0,1-11.49-11.48h0V829.8a11.5,11.5,0,0,1,11.49-11.49h278a11.5,11.5,0,0,1,11.49,11.49h0v53.61a11.49,11.49,0,0,1-11.49,11.48h-278ZM576.51,780H423.31L275.37,632.09v-480a23,23,0,0,1,22.94-23h318L748.63,261.39V757.05a23,23,0,0,1-22.94,23H636.08L485.2,629.14V205.69H589.54L691.19,307.34V682.77l19.15,19.14V299.11h-.29L578.25,167.32l-.39.4v-.32H437.72a11.5,11.5,0,0,0-11.49,11.48V629.93h.19L576.51,780ZM502,627.63h.43l74,74-.27-74h.12V295.52L502,221.24Z" transform="translate(-275.37 -129.11)"/>
</svg>
