<?xml version="1.0" encoding="UTF-8"?>
<svg xmlns="http://www.w3.org/2000/svg" viewBox="0 0 512 512">
  <defs>
    <style>
      .uuid-bbf9032c-db47-4399-ad80-a9c688dad991 {
        fill: #fff;
      }

      .uuid-c8c418b7-1385-431a-89f4-e75d3e340098 {
        fill: none;
      }

      .uuid-c8c418b7-1385-431a-89f4-e75d3e340098, .uuid-c242e06b-8bae-4c67-823d-9ad503d1deac {
        stroke: #000;
        stroke-miterlimit: 10;
      }
    </style>
  </defs>
  <g id="uuid-498fce6a-0680-4b7b-9ea7-df5c03e37728" data-name="图层 2">
    <rect class="uuid-bbf9032c-db47-4399-ad80-a9c688dad991" width="512" height="512" rx="32" ry="32"/>
  </g>
  <g id="uuid-7b29a68d-5bd5-4584-82c9-ef35513b3252" data-name="图层 1">
    <g>
      <polygon class="uuid-c8c418b7-1385-431a-89f4-e75d3e340098" points="435.19 396.5 282.11 396.5 273.5 381.59 269.41 374.5 269.54 374.5 257.41 353.5 241.24 325.5 148.98 325.5 96.13 233.97 90.95 225 148.98 124.5 265.02 124.5 244.24 160.5 169.76 160.5 148.97 196.5 132.52 225 169.18 288.5 245.02 288.5 261.19 260.5 229.19 260.5 229 260.17 212.5 231.59 208.41 224.5 397.19 224.5 376.8 259.82 376.41 260.5 302.56 260.5 286.38 288.5 361.6 288.5 340.82 324.5 282.41 324.5 282.99 325.5 286.5 331.59 303 360.17 303.19 360.5 414.41 360.5 418.5 367.59 422.49 374.5 431.84 390.7 435 396.17 435.19 396.5"/>
      <polygon class="uuid-c242e06b-8bae-4c67-823d-9ad503d1deac" points="420.19 387.5 267.11 387.5 258.5 372.59 254.41 365.5 254.54 365.5 242.41 344.5 226.24 316.5 133.98 316.5 81.13 224.97 75.95 216 133.98 115.5 250.02 115.5 229.24 151.5 154.76 151.5 133.97 187.5 117.52 216 154.18 279.5 230.02 279.5 246.19 251.5 214.19 251.5 214 251.17 197.5 222.59 193.41 215.5 382.19 215.5 361.8 250.82 361.41 251.5 287.56 251.5 271.38 279.5 346.6 279.5 325.82 315.5 267.41 315.5 267.99 316.5 271.5 322.59 288 351.17 288.19 351.5 399.41 351.5 403.5 358.59 407.49 365.5 416.84 381.7 420 387.17 420.19 387.5"/>
      <g id="uuid-1f7d7e5b-dc5c-4417-81a9-4956a70b4175" data-name="REFILL STUDIO GAMING EPOCHS">
        <path d="m142.82,370v-1.32h2.26c.57,0,1.02-.12,1.34-.37s.49-.6.49-1.04c0-.47-.16-.83-.49-1.09-.32-.25-.77-.38-1.35-.38h-1.72v7.75h-1.43v-9.07h3.31c.97,0,1.73.25,2.29.74.56.5.84,1.18.84,2.04s-.27,1.53-.82,2.01c-.55.48-1.31.73-2.27.73h-2.46Zm2-.43l1.4-.24,2.57,4.22h-1.67l-2.3-3.98Z"/>
        <path d="m151.3,372.24h4.52v1.31h-5.95v-9.07h5.81v1.32h-4.38v2.42h4.13v1.31h-4.13v2.71Z"/>
        <path d="m158.67,373.55h-1.43v-9.07h5.7v1.34h-4.27v2.6h3.97v1.34h-3.97v3.78Z"/>
        <path d="m165.78,373.55h-1.43v-9.07h1.43v9.07Z"/>
        <path d="m168.99,372.24h4.46v1.31h-5.89v-9.07h1.43v7.76Z"/>
        <path d="m176.06,372.24h4.46v1.31h-5.89v-9.07h1.43v7.76Z"/>
        <path d="m188.09,373.68c-.77,0-1.45-.17-2.06-.5s-1.06-.79-1.37-1.39l1.14-.77c.25.46.57.8.96,1.02.39.22.84.34,1.34.34.35,0,.67-.06.95-.17s.51-.26.67-.46c.16-.19.24-.41.24-.66s-.07-.47-.2-.64c-.14-.17-.36-.33-.66-.47-.3-.14-.72-.28-1.25-.43l-.07-.02c-.59-.17-1.08-.34-1.48-.52s-.73-.44-1-.78c-.28-.34-.41-.79-.41-1.34,0-.51.14-.97.42-1.36.28-.4.67-.71,1.16-.93.5-.22,1.06-.34,1.69-.34.74,0,1.37.16,1.91.47.54.32.96.74,1.26,1.27l-1.09.74c-.25-.37-.55-.66-.92-.87-.36-.21-.76-.32-1.18-.32-.34,0-.64.06-.92.17-.28.11-.49.26-.65.46-.16.19-.23.4-.23.64,0,.29.08.52.25.71.17.18.4.33.68.45.29.12.68.24,1.18.38.59.15,1.09.32,1.51.5.41.18.76.45,1.04.8.28.35.42.81.42,1.37s-.14,1-.41,1.4c-.28.4-.67.7-1.17.92-.5.22-1.08.32-1.74.32Z"/>
        <path d="m194.82,373.55v-7.73h-2.75v-1.34h6.94v1.34h-2.75v7.73h-1.44Z"/>
        <path d="m203.67,372.39c.63,0,1.13-.2,1.5-.61.37-.41.55-.98.55-1.7v-5.59h1.43v5.68c0,.74-.14,1.37-.42,1.91-.28.54-.68.95-1.21,1.23-.53.28-1.14.43-1.85.43s-1.33-.14-1.85-.43c-.52-.28-.93-.69-1.21-1.23-.28-.54-.42-1.17-.42-1.91v-5.68h1.43v5.54c0,.74.18,1.32.55,1.74.36.42.87.62,1.51.62Z"/>
        <path d="m208.92,373.55v-9.07h3.4c.9,0,1.68.19,2.32.56s1.13.9,1.46,1.58c.33.68.5,1.48.5,2.39s-.17,1.72-.52,2.4c-.35.68-.86,1.21-1.54,1.58-.68.37-1.49.56-2.43.56h-3.19Zm3.19-1.33c.66,0,1.21-.13,1.66-.38.45-.25.79-.62,1.01-1.09.23-.48.34-1.05.34-1.73s-.11-1.25-.33-1.72c-.22-.48-.55-.84-.98-1.09-.43-.25-.97-.38-1.61-.38h-1.86v6.4h1.76Z"/>
        <path d="m219.54,373.55h-1.43v-9.07h1.43v9.07Z"/>
        <path d="m225.23,373.72c-.85,0-1.59-.19-2.21-.56s-1.11-.91-1.45-1.62c-.34-.71-.51-1.55-.51-2.53s.17-1.81.51-2.51c.34-.71.82-1.25,1.45-1.63s1.37-.56,2.21-.56,1.6.19,2.23.56,1.11.92,1.45,1.63c.34.71.51,1.55.51,2.51s-.17,1.82-.51,2.53c-.34.71-.82,1.25-1.45,1.62s-1.37.56-2.23.56Zm0-1.33c.55,0,1.03-.13,1.44-.4.41-.27.72-.65.95-1.16s.34-1.11.34-1.81-.11-1.3-.34-1.8-.54-.89-.95-1.16c-.41-.27-.89-.4-1.44-.4s-1.02.13-1.43.4c-.41.27-.73.65-.95,1.16-.22.5-.33,1.1-.33,1.8s.11,1.31.33,1.81c.22.5.54.89.95,1.16.41.27.89.4,1.43.4Z"/>
        <path d="m145.97,380.05c-.58,0-1.08.13-1.5.4-.42.26-.75.65-.99,1.16-.24.51-.35,1.11-.35,1.81s.11,1.33.34,1.83.55.88.97,1.15c.42.26.91.4,1.47.4.44,0,.82-.07,1.15-.21.33-.14.63-.36.9-.67v-1.69h-2v-1.32h3.38v3.6c-.43.54-.94.95-1.51,1.22-.58.27-1.22.4-1.92.4-.86,0-1.61-.19-2.24-.56-.63-.37-1.12-.91-1.47-1.62s-.52-1.55-.52-2.53.18-1.82.53-2.52c.35-.7.85-1.24,1.5-1.62s1.41-.56,2.28-.56c.71,0,1.34.15,1.9.46.55.3.99.73,1.32,1.27l-1.14.78c-.24-.35-.54-.63-.91-.85-.37-.21-.76-.32-1.16-.32Z"/>
        <path d="m149.98,387.95l3.4-9.07h1.46l3.4,9.07h-1.51l-2.58-7.1h-.07l-2.58,7.1h-1.51Zm5.99-4.06l.35,1.34h-4.37l.32-1.34h3.7Z"/>
        <path d="m159.26,387.95v-9.07h1.36l3.17,5.1h.07l3.17-5.1h1.36v9.07h-1.39v-6.41h-.07l-2.62,4.2h-.95l-2.62-4.19h-.07v6.4h-1.4Z"/>
        <path d="m171.58,387.95h-1.43v-9.07h1.43v9.07Z"/>
        <path d="m173.36,387.95v-9.07h1.34l4.46,6.5h.06v-6.5h1.39v9.07h-1.3l-4.5-6.5h-.07v6.5h-1.39Z"/>
        <path d="m186.44,380.05c-.58,0-1.08.13-1.5.4-.42.26-.75.65-.99,1.16-.24.51-.35,1.11-.35,1.81s.11,1.33.34,1.83.55.88.97,1.15c.42.26.91.4,1.47.4.44,0,.82-.07,1.15-.21.33-.14.63-.36.9-.67v-1.69h-2v-1.32h3.38v3.6c-.43.54-.94.95-1.51,1.22-.58.27-1.22.4-1.92.4-.86,0-1.61-.19-2.24-.56-.63-.37-1.12-.91-1.47-1.62s-.52-1.55-.52-2.53.18-1.82.53-2.52c.35-.7.85-1.24,1.5-1.62s1.41-.56,2.28-.56c.71,0,1.34.15,1.9.46.55.3.99.73,1.32,1.27l-1.14.78c-.24-.35-.54-.63-.91-.85-.37-.21-.76-.32-1.16-.32Z"/>
        <path d="m196.41,386.64h4.52v1.31h-5.95v-9.07h5.81v1.32h-4.38v2.42h4.13v1.31h-4.13v2.71Z"/>
        <path d="m203.22,384.71v-1.31h2.3c.61,0,1.08-.14,1.41-.41.33-.28.5-.67.5-1.18s-.17-.91-.5-1.19-.8-.42-1.41-.42h-1.75v7.75h-1.43v-9.07h3.35c1.01,0,1.79.26,2.36.77.56.52.85,1.23.85,2.15s-.27,1.63-.82,2.14-1.3.76-2.28.76h-2.58Z"/>
        <path d="m214.13,388.12c-.85,0-1.59-.19-2.21-.56s-1.11-.91-1.45-1.62c-.34-.71-.51-1.55-.51-2.53s.17-1.81.51-2.51c.34-.71.82-1.25,1.45-1.63s1.37-.56,2.21-.56,1.6.19,2.23.56,1.11.92,1.45,1.63c.34.71.51,1.55.51,2.51s-.17,1.82-.51,2.53c-.34.71-.82,1.25-1.45,1.62s-1.37.56-2.23.56Zm0-1.33c.55,0,1.03-.13,1.44-.4.41-.27.72-.65.95-1.16s.34-1.11.34-1.81-.11-1.3-.34-1.8-.54-.89-.95-1.16c-.41-.27-.89-.4-1.44-.4s-1.02.13-1.43.4c-.41.27-.73.65-.95,1.16-.22.5-.33,1.1-.33,1.8s.11,1.31.33,1.81c.22.5.54.89.95,1.16.41.27.89.4,1.43.4Z"/>
        <path d="m227.13,386.35c-.34.54-.79.97-1.35,1.29-.56.32-1.21.47-1.94.47-.85,0-1.59-.19-2.24-.58-.64-.39-1.14-.94-1.5-1.66-.36-.72-.53-1.55-.53-2.51s.18-1.75.53-2.45c.36-.7.86-1.24,1.5-1.63.64-.38,1.39-.58,2.24-.58.73,0,1.38.16,1.94.48.57.32,1.02.75,1.34,1.3l-1.14.78c-.24-.38-.55-.68-.94-.89-.39-.21-.79-.32-1.21-.32-.57,0-1.06.13-1.48.4s-.74.65-.97,1.15-.34,1.09-.34,1.76.11,1.29.34,1.81.55.91.97,1.19.91.42,1.48.42c.42,0,.81-.11,1.19-.32s.7-.52.95-.91l1.14.8Z"/>
        <path d="m229.95,378.88v9.07h-1.43v-9.07h1.43Zm-.55,5.02v-1.33h5.48v1.33h-5.48Zm4.94,4.06v-9.07h1.42v9.07h-1.42Z"/>
        <path d="m240.41,388.08c-.77,0-1.45-.17-2.06-.5s-1.06-.79-1.37-1.39l1.14-.77c.25.46.57.8.96,1.02.39.22.84.34,1.34.34.35,0,.67-.06.95-.17s.51-.26.67-.46c.16-.19.24-.41.24-.66s-.07-.47-.2-.64c-.14-.17-.36-.33-.66-.47-.3-.14-.72-.28-1.25-.43l-.07-.02c-.59-.17-1.08-.34-1.48-.52s-.73-.44-1-.78c-.28-.34-.41-.79-.41-1.34,0-.51.14-.97.42-1.36.28-.4.67-.71,1.16-.93.5-.22,1.06-.34,1.69-.34.74,0,1.37.16,1.91.47.54.32.96.74,1.26,1.27l-1.09.74c-.25-.37-.55-.66-.92-.87-.36-.21-.76-.32-1.18-.32-.34,0-.64.06-.92.17-.28.11-.49.26-.65.46-.16.19-.23.4-.23.64,0,.29.08.52.25.71.17.18.4.33.68.45.29.12.68.24,1.18.38.59.15,1.09.32,1.51.5.41.18.76.45,1.04.8.28.35.42.81.42,1.37s-.14,1-.41,1.4c-.28.4-.67.7-1.17.92-.5.22-1.08.32-1.74.32Z"/>
      </g>
    </g>
  </g>
</svg>